# xmcd
#
# Track frame offsets: 
#        150
#        20790
#        47462
#        67655
#        89820
#        108357
#        122565
#        145620
#        166720
#        191562
#
# Disc length: 2825 seconds
#
# Revision: 8
# Processed by: cddbd v1.5.2PL0 Copyright (c) Steve Scherf et al.
# Submitted via: ExactAudioCopyFreeDBPlugin 1.0
#
DISCID=7c0b070a
DTITLE=陳淑樺 - 一生守候
DYEAR=1990
DGENRE=Pop
TTITLE0=情關
TTITLE1=一生守候
TTITLE2=不要隨便說BYE BYE
TTITLE3=秋日的午後
TTITLE4=緊緊擁抱朋友
TTITLE5=滾滾紅塵
TTITLE6=東方的朋友
TTITLE7=紅樓夢
TTITLE8=春去春又回 
TTITLE9=東方月(演奏曲)
EXTD=YEAR: 1990
EXTT0=
EXTT1=
EXTT2=
EXTT3=
EXTT4=
EXTT5=
EXTT6=
EXTT7=
EXTT8=
EXTT9=
PLAYORDER=
